<svg xmlns="http://www.w3.org/2000/svg" xmlns:xlink="http://www.w3.org/1999/xlink" width="1200" zoomAndPan="magnify" viewBox="0 0 900 899.99999" height="1200" preserveAspectRatio="xMidYMid meet" version="1.0"><defs><g/><clipPath id="c4e108b8b5"><path d="M 127.5 0 L 772.5 0 C 806.316406 0 838.746094 13.433594 862.65625 37.34375 C 886.566406 61.253906 900 93.683594 900 127.5 L 900 772.5 C 900 806.316406 886.566406 838.746094 862.65625 862.65625 C 838.746094 886.566406 806.316406 900 772.5 900 L 127.5 900 C 93.683594 900 61.253906 886.566406 37.34375 862.65625 C 13.433594 838.746094 0 806.316406 0 772.5 L 0 127.5 C 0 93.683594 13.433594 61.253906 37.34375 37.34375 C 61.253906 13.433594 93.683594 0 127.5 0 Z M 127.5 0 " clip-rule="nonzero"/></clipPath><clipPath id="50711d453b"><path d="M 0 0 L 900 0 L 900 900 L 0 900 Z M 0 0 " clip-rule="nonzero"/></clipPath><clipPath id="af57e00704"><path d="M 127.5 0 L 772.5 0 C 806.316406 0 838.746094 13.433594 862.65625 37.34375 C 886.566406 61.253906 900 93.683594 900 127.5 L 900 772.5 C 900 806.316406 886.566406 838.746094 862.65625 862.65625 C 838.746094 886.566406 806.316406 900 772.5 900 L 127.5 900 C 93.683594 900 61.253906 886.566406 37.34375 862.65625 C 13.433594 838.746094 0 806.316406 0 772.5 L 0 127.5 C 0 93.683594 13.433594 61.253906 37.34375 37.34375 C 61.253906 13.433594 93.683594 0 127.5 0 Z M 127.5 0 " clip-rule="nonzero"/></clipPath><clipPath id="6343ea521e"><rect x="0" width="900" y="0" height="900"/></clipPath><clipPath id="4f25d2ea6a"><path d="M 287.167969 313.8125 L 613 313.8125 L 613 586.1875 L 287.167969 586.1875 Z M 287.167969 313.8125 " clip-rule="nonzero"/></clipPath><clipPath id="3d02736583"><path d="M 612.832031 396.203125 C 610.671875 345.503906 575.109375 313.8125 528.585938 313.8125 C 493.25 313.816406 460.507812 335.09375 446.800781 365.265625 C 433.621094 335.09375 402.144531 313.8125 368.167969 313.8125 C 323.433594 313.8125 289.246094 345.503906 287.167969 396.203125 C 287.167969 501.519531 367.90625 553.179688 446.800781 586.1875 C 528.863281 553.179688 612.832031 501.53125 612.832031 396.203125 Z M 612.832031 396.203125 " clip-rule="nonzero"/></clipPath><clipPath id="7830b73a46"><path d="M 0.167969 0.8125 L 325.960938 0.8125 L 325.960938 273.1875 L 0.167969 273.1875 Z M 0.167969 0.8125 " clip-rule="nonzero"/></clipPath><clipPath id="3f77842617"><path d="M 325.832031 83.203125 C 323.671875 32.503906 288.109375 0.8125 241.585938 0.8125 C 206.25 0.816406 173.507812 22.09375 159.800781 52.265625 C 146.621094 22.09375 115.144531 0.8125 81.167969 0.8125 C 36.433594 0.8125 2.246094 32.503906 0.167969 83.203125 C 0.167969 188.519531 80.90625 240.179688 159.800781 273.1875 C 241.863281 240.179688 325.832031 188.53125 325.832031 83.203125 Z M 325.832031 83.203125 " clip-rule="nonzero"/></clipPath><clipPath id="ea54e2e059"><rect x="0" width="326" y="0" height="274"/></clipPath></defs><g clip-path="url(#c4e108b8b5)"><g transform="matrix(1, 0, 0, 1, 0, 0.000000000000108392)"><g clip-path="url(#6343ea521e)"><g clip-path="url(#50711d453b)"><g clip-path="url(#af57e00704)"><rect x="-198" width="1296" fill="#222222" height="1295.999986" y="-197.999998" fill-opacity="1"/></g></g></g></g></g><g clip-path="url(#4f25d2ea6a)"><g clip-path="url(#3d02736583)"><g transform="matrix(1, 0, 0, 1, 287, 313)"><g clip-path="url(#ea54e2e059)"><g clip-path="url(#7830b73a46)"><g clip-path="url(#3f77842617)"><path fill="#e2e2e2" d="M 0.167969 0.8125 L 325.738281 0.8125 L 325.738281 273.1875 L 0.167969 273.1875 Z M 0.167969 0.8125 " fill-opacity="1" fill-rule="nonzero"/></g></g></g></g></g></g><g fill="#ffffff" fill-opacity="1"><g transform="translate(393.457016, 674.554209)"><g><path d="M 20.03125 -53.578125 C 26.625 -53.578125 31.640625 -52.210938 35.078125 -49.484375 C 38.523438 -46.765625 40.25 -43.113281 40.25 -38.53125 C 40.25 -35.78125 39.515625 -33.441406 38.046875 -31.515625 C 36.585938 -29.597656 34.859375 -28.148438 32.859375 -27.171875 C 34.054688 -26.710938 35.171875 -26.140625 36.203125 -25.453125 C 37.234375 -24.765625 38.148438 -23.90625 38.953125 -22.875 C 39.753906 -21.84375 40.382812 -20.640625 40.84375 -19.265625 C 41.300781 -17.890625 41.53125 -16.285156 41.53125 -14.453125 C 41.53125 -11.984375 41 -9.773438 39.9375 -7.828125 C 38.882812 -5.878906 37.410156 -4.21875 35.515625 -2.84375 C 33.628906 -1.46875 31.378906 -0.421875 28.765625 0.296875 C 26.160156 1.015625 23.304688 1.375 20.203125 1.375 C 14.242188 1.375 9.742188 0.546875 6.703125 -1.109375 C 3.671875 -2.773438 2.15625 -4.898438 2.15625 -7.484375 C 2.15625 -9.023438 2.523438 -10.351562 3.265625 -11.46875 C 4.015625 -12.59375 4.929688 -13.472656 6.015625 -14.109375 C 7.160156 -13.304688 8.691406 -12.457031 10.609375 -11.5625 C 12.535156 -10.675781 15.046875 -10.234375 18.140625 -10.234375 C 21.066406 -10.234375 23.234375 -10.75 24.640625 -11.78125 C 26.046875 -12.8125 26.75 -14.160156 26.75 -15.828125 C 26.75 -17.484375 26.1875 -18.738281 25.0625 -19.59375 C 23.945312 -20.457031 22.015625 -20.890625 19.265625 -20.890625 L 11.1875 -20.890625 C 10.78125 -21.523438 10.429688 -22.300781 10.140625 -23.21875 C 9.859375 -24.132812 9.71875 -25.222656 9.71875 -26.484375 C 9.71875 -27.804688 9.84375 -28.9375 10.09375 -29.875 C 10.351562 -30.820312 10.71875 -31.613281 11.1875 -32.25 L 19.265625 -32.25 C 23.390625 -32.25 25.453125 -33.828125 25.453125 -36.984375 C 25.453125 -38.472656 24.789062 -39.675781 23.46875 -40.59375 C 22.15625 -41.507812 20.179688 -41.96875 17.546875 -41.96875 C 15.191406 -41.96875 13.125 -41.691406 11.34375 -41.140625 C 9.570312 -40.597656 8.113281 -39.925781 6.96875 -39.125 C 5.988281 -39.8125 5.179688 -40.65625 4.546875 -41.65625 C 3.921875 -42.664062 3.609375 -43.859375 3.609375 -45.234375 C 3.609375 -48.097656 5.097656 -50.203125 8.078125 -51.546875 C 11.066406 -52.898438 15.050781 -53.578125 20.03125 -53.578125 Z M 20.03125 -53.578125 "/></g></g></g><g fill="#ffffff" fill-opacity="1"><g transform="translate(438.000955, 674.554209)"><g><path d="M 41.625 -12.8125 C 40.875 -12.1875 39.910156 -11.6875 38.734375 -11.3125 C 37.566406 -10.9375 36.207031 -10.75 34.65625 -10.75 C 32.59375 -10.75 30.882812 -11.003906 29.53125 -11.515625 C 28.1875 -12.035156 27.316406 -12.925781 26.921875 -14.1875 C 25.316406 -19.238281 23.992188 -23.320312 22.953125 -26.4375 C 21.921875 -29.5625 21.117188 -32.300781 20.546875 -34.65625 L 20.125 -34.65625 C 19.945312 -31.269531 19.816406 -28.1875 19.734375 -25.40625 C 19.648438 -22.625 19.59375 -19.914062 19.5625 -17.28125 C 19.53125 -14.644531 19.472656 -11.976562 19.390625 -9.28125 C 19.304688 -6.59375 19.175781 -3.613281 19 -0.34375 C 18.257812 -0.0507812 17.285156 0.191406 16.078125 0.390625 C 14.878906 0.585938 13.675781 0.6875 12.46875 0.6875 C 9.945312 0.6875 7.984375 0.285156 6.578125 -0.515625 C 5.171875 -1.316406 4.46875 -2.78125 4.46875 -4.90625 L 6.96875 -48.765625 C 7.425781 -49.503906 8.425781 -50.300781 9.96875 -51.15625 C 11.519531 -52.019531 13.703125 -52.453125 16.515625 -52.453125 C 19.546875 -52.453125 21.921875 -51.976562 23.640625 -51.03125 C 25.367188 -50.09375 26.632812 -48.5625 27.4375 -46.4375 C 27.945312 -45.0625 28.503906 -43.484375 29.109375 -41.703125 C 29.710938 -39.929688 30.3125 -38.097656 30.90625 -36.203125 C 31.507812 -34.316406 32.097656 -32.441406 32.671875 -30.578125 C 33.253906 -28.710938 33.773438 -27.035156 34.234375 -25.546875 L 34.65625 -25.546875 C 36.03125 -30.359375 37.40625 -35.015625 38.78125 -39.515625 C 40.15625 -44.015625 41.414062 -47.785156 42.5625 -50.828125 C 43.425781 -51.285156 44.53125 -51.671875 45.875 -51.984375 C 47.226562 -52.296875 48.734375 -52.453125 50.390625 -52.453125 C 53.203125 -52.453125 55.492188 -52.035156 57.265625 -51.203125 C 59.046875 -50.378906 60.082031 -49.191406 60.375 -47.640625 C 60.601562 -46.492188 60.84375 -44.726562 61.09375 -42.34375 C 61.351562 -39.96875 61.625 -37.289062 61.90625 -34.3125 C 62.195312 -31.332031 62.484375 -28.175781 62.765625 -24.84375 C 63.054688 -21.519531 63.332031 -18.320312 63.59375 -15.25 C 63.851562 -12.1875 64.066406 -9.378906 64.234375 -6.828125 C 64.410156 -4.285156 64.53125 -2.328125 64.59375 -0.953125 C 63.613281 -0.378906 62.59375 0.0351562 61.53125 0.296875 C 60.46875 0.554688 59.109375 0.6875 57.453125 0.6875 C 55.273438 0.6875 53.4375 0.316406 51.9375 -0.421875 C 50.445312 -1.171875 49.644531 -2.632812 49.53125 -4.8125 C 49.1875 -11.0625 48.972656 -16.679688 48.890625 -21.671875 C 48.804688 -26.660156 48.675781 -30.847656 48.5 -34.234375 L 48.078125 -34.234375 C 47.503906 -31.992188 46.671875 -29.179688 45.578125 -25.796875 C 44.492188 -22.410156 43.175781 -18.082031 41.625 -12.8125 Z M 41.625 -12.8125 "/></g></g></g></svg>