<svg xmlns="http://www.w3.org/2000/svg" xmlns:xlink="http://www.w3.org/1999/xlink" width="1200" zoomAndPan="magnify" viewBox="0 0 900 899.99999" height="1200" preserveAspectRatio="xMidYMid meet" version="1.0"><defs><clipPath id="5438f6d3a9"><path d="M 127.5 0 L 772.5 0 C 806.316406 0 838.746094 13.433594 862.65625 37.34375 C 886.566406 61.253906 900 93.683594 900 127.5 L 900 772.5 C 900 806.316406 886.566406 838.746094 862.65625 862.65625 C 838.746094 886.566406 806.316406 900 772.5 900 L 127.5 900 C 93.683594 900 61.253906 886.566406 37.34375 862.65625 C 13.433594 838.746094 0 806.316406 0 772.5 L 0 127.5 C 0 93.683594 13.433594 61.253906 37.34375 37.34375 C 61.253906 13.433594 93.683594 0 127.5 0 Z M 127.5 0 " clip-rule="nonzero"/></clipPath><clipPath id="dddac0c598"><path d="M 0 0 L 900 0 L 900 900 L 0 900 Z M 0 0 " clip-rule="nonzero"/></clipPath><clipPath id="23d322132f"><path d="M 127.5 0 L 772.5 0 C 806.316406 0 838.746094 13.433594 862.65625 37.34375 C 886.566406 61.253906 900 93.683594 900 127.5 L 900 772.5 C 900 806.316406 886.566406 838.746094 862.65625 862.65625 C 838.746094 886.566406 806.316406 900 772.5 900 L 127.5 900 C 93.683594 900 61.253906 886.566406 37.34375 862.65625 C 13.433594 838.746094 0 806.316406 0 772.5 L 0 127.5 C 0 93.683594 13.433594 61.253906 37.34375 37.34375 C 61.253906 13.433594 93.683594 0 127.5 0 Z M 127.5 0 " clip-rule="nonzero"/></clipPath><clipPath id="d1f9137229"><rect x="0" width="900" y="0" height="900"/></clipPath><clipPath id="2e673fca2b"><path d="M 287.167969 313.8125 L 613 313.8125 L 613 586.1875 L 287.167969 586.1875 Z M 287.167969 313.8125 " clip-rule="nonzero"/></clipPath><clipPath id="c4a892c48a"><path d="M 612.832031 396.203125 C 610.671875 345.503906 575.109375 313.8125 528.585938 313.8125 C 493.25 313.816406 460.507812 335.09375 446.800781 365.265625 C 433.621094 335.09375 402.144531 313.8125 368.167969 313.8125 C 323.433594 313.8125 289.246094 345.503906 287.167969 396.203125 C 287.167969 501.519531 367.90625 553.179688 446.800781 586.1875 C 528.863281 553.179688 612.832031 501.53125 612.832031 396.203125 Z M 612.832031 396.203125 " clip-rule="nonzero"/></clipPath><clipPath id="103ef8f052"><path d="M 0.167969 0.8125 L 325.960938 0.8125 L 325.960938 273.1875 L 0.167969 273.1875 Z M 0.167969 0.8125 " clip-rule="nonzero"/></clipPath><clipPath id="03ad5e8f50"><path d="M 325.832031 83.203125 C 323.671875 32.503906 288.109375 0.8125 241.585938 0.8125 C 206.25 0.816406 173.507812 22.09375 159.800781 52.265625 C 146.621094 22.09375 115.144531 0.8125 81.167969 0.8125 C 36.433594 0.8125 2.246094 32.503906 0.167969 83.203125 C 0.167969 188.519531 80.90625 240.179688 159.800781 273.1875 C 241.863281 240.179688 325.832031 188.53125 325.832031 83.203125 Z M 325.832031 83.203125 " clip-rule="nonzero"/></clipPath><clipPath id="cfd44213e2"><rect x="0" width="326" y="0" height="274"/></clipPath></defs><g clip-path="url(#5438f6d3a9)"><g transform="matrix(1, 0, 0, 1, 0, 0.000000000000108392)"><g clip-path="url(#d1f9137229)"><g clip-path="url(#dddac0c598)"><g clip-path="url(#23d322132f)"><rect x="-198" width="1296" fill="#222222" height="1295.999986" y="-197.999998" fill-opacity="1"/></g></g></g></g></g><g clip-path="url(#2e673fca2b)"><g clip-path="url(#c4a892c48a)"><g transform="matrix(1, 0, 0, 1, 287, 313)"><g clip-path="url(#cfd44213e2)"><g clip-path="url(#103ef8f052)"><g clip-path="url(#03ad5e8f50)"><path fill="#e2e2e2" d="M 0.167969 0.8125 L 325.738281 0.8125 L 325.738281 273.1875 L 0.167969 273.1875 Z M 0.167969 0.8125 " fill-opacity="1" fill-rule="nonzero"/></g></g></g></g></g></g></svg>